<?xml version="1.0" encoding="UTF-8" standalone="no"?>
<svg
   width="1024"
   height="414"
   version="1.1"
   id="svg11"
   sodipodi:docname="logo_outlined.svg"
   xml:space="preserve"
   inkscape:version="1.4.4 (dcaf3e7d9e, 2026-05-05)"
   inkscape:export-filename="../Downloads/logo_outlined.png"
   inkscape:export-xdpi="96"
   inkscape:export-ydpi="96"
   xmlns:inkscape="http://www.inkscape.org/namespaces/inkscape"
   xmlns:sodipodi="http://sodipodi.sourceforge.net/DTD/sodipodi-0.dtd"
   xmlns="http://www.w3.org/2000/svg"
   xmlns:svg="http://www.w3.org/2000/svg"><defs
     id="defs11" /><sodipodi:namedview
     id="namedview11"
     pagecolor="#ffffff"
     bordercolor="#000000"
     borderopacity="0.25"
     inkscape:showpageshadow="2"
     inkscape:pageopacity="0.0"
     inkscape:pagecheckerboard="0"
     inkscape:deskcolor="#d1d1d1"
     inkscape:zoom="0.88916016"
     inkscape:cx="460.54695"
     inkscape:cy="218.18342"
     inkscape:window-width="1920"
     inkscape:window-height="1128"
     inkscape:window-x="0"
     inkscape:window-y="0"
     inkscape:window-maximized="1"
     inkscape:current-layer="svg11"><inkscape:page
       x="0"
       y="0"
       width="1024"
       height="414"
       id="page2"
       margin="0"
       bleed="0" /></sodipodi:namedview><g
     id="use14"
     transform="matrix(0.47912343,0,0,1.2175633,66.860846,-44.932319)"><g
       fill="#ffffff"
       transform="matrix(0.363,0,0,0.363,30.492,21.054)"
       id="g32"><path
         d="M 101.76678,673 75.900977,709.01718 C 303.0469,938.02557 646.58893,935.48095 919,705.20026 V 673 Z"
         id="path28"
         style="stroke-width:0.989764"
         inkscape:label="path28"
         sodipodi:nodetypes="ccccc" /><path
         fill="none"
         stroke="#ffffff"
         stroke-linejoin="round"
         stroke-width="64"
         d="m 105,745 c 0,276 813,276 814,0 V 427 q 30,-39 56,-81 -35,-59 -83,-108 -43,20 -82,47 -40,-37 -88,-64 7,-51 8,-102 -59,-28 -123,-42 -26,43 -46,89 -49,-7 -98,0 -20,-46 -46,-89 -64,14 -123,42 1,51 8,102 -48,27 -88,64 -39,-27 -82,-47 -48,49 -83,108 26,42 56,81 z"
         id="path29" /><path
         fill="#478cbf"
         d="m 105.04463,678.25556 151.98327,14.11801 c 7.99912,0.67229 12.99857,5.37829 14.99835,14.11801 l 3.99956,67.56475 131.98547,10.08429 7.99912,-61.51418 c 1.33318,-7.39514 6.33263,-12.43728 14.99835,-15.12643 h 161.98217 c 8.66571,2.68915 13.66516,7.73129 14.99835,15.12643 l 7.99912,61.51418 131.98547,-10.08429 3.99956,-67.56475 c 1.99978,-8.73972 6.99923,-13.44572 14.99835,-14.11801 L 918.95504,678.25556 V 430.182 c 19.9978,-26.21916 38.66241,-53.44675 55.99383,-81.68276 -23.33076,-39.66488 -50.99438,-75.96833 -82.99086,-108.91035 -28.66352,13.44572 -55.99384,29.24445 -81.99098,47.39617 -26.66373,-24.87459 -55.99383,-46.38774 -87.99031,-64.53947 4.66616,-34.28659 7.33252,-68.57318 7.99912,-102.85977 -39.329,-18.82401 -80.32449,-32.942015 -122.98646,-42.35402 -17.33143,28.9083 -32.66308,58.82503 -45.99494,89.75019 -32.66308,-4.706 -65.32614,-4.706 -97.98922,0 -13.33186,-30.92516 -28.66351,-60.84189 -45.99493,-89.75019 -42.66198,9.412005 -83.65746,23.53001 -122.98647,42.35402 0.6666,34.28659 3.33297,68.57318 7.99912,102.85977 -31.99647,18.15173 -61.32658,39.66488 -87.99031,64.53947 -25.99714,-18.15172 -53.32746,-33.95045 -81.99098,-47.39617 -31.99647,32.94202 -59.660096,69.24547 -82.990861,108.91035 17.331425,28.23601 35.996038,55.4636 55.993841,81.68276 z M 50.085844,707.04312 C 36.964166,1041.9241 954.98859,1066.9192 969.06451,707.68463 l -184.09472,15.95024 -4.99945,69.58161 c -1.33319,6.72287 -5.99934,11.09272 -13.99846,13.10958 l -161.98217,11.09272 c -7.99912,0 -13.33187,-3.69757 -15.99824,-11.09272 l -9.9989,-65.54789 H 446.0071 l -9.9989,65.54789 c -2.66638,7.39515 -7.99912,11.09272 -15.99824,11.09272 L 258.02779,806.32606 c -7.99912,-2.01686 -12.66528,-6.38671 -13.99846,-13.10958 l -4.99945,-69.58161 z"
         id="path30"
         sodipodi:nodetypes="cccccccccccccccccccccccccccccccccccccccccccccc"
         style="stroke-width:1.00415" /><path
         d="m 483,600 c 0,34 58,34 58,0 v -86 c 0,-34 -58,-34 -58,0 z"
         id="path31"
         sodipodi:insensitive="true" /><circle
         cx="725"
         cy="526"
         r="90"
         id="circle31"
         sodipodi:insensitive="true" /><circle
         cx="299"
         cy="526"
         r="90"
         id="circle32"
         sodipodi:insensitive="true" /></g><g
       fill="#414042"
       transform="matrix(0.363,0,0,0.363,30.492,21.054)"
       id="g34"><circle
         cx="717"
         cy="532"
         r="60"
         id="circle33" /><circle
         cx="307"
         cy="532"
         r="60"
         id="circle34" /></g><ellipse
       cx="217.73149"
       cy="352.63797"
       id="circle43"
       style="fill:#ffffff;fill-opacity:1;stroke-width:0.160342"
       rx="5.1819305"
       ry="17.861095" /><path
       style="opacity:1;fill:#ffffff;fill-opacity:1;stroke-width:1.30927"
       d="m 210.67101,420.30299 -878.03792,64.66193"
       id="path43" /></g><path
     stroke="#ffffff"
     stroke-linejoin="round"
     stroke-width="23.5"
     d="m 487.93,322.997 c -0.94,1.926 -2.664,3.691 -5.188,5.289 -2.52,1.607 -5.722,2.406 -9.611,2.406 -5.132,0 -9.259,-1.617 -12.394,-4.887 -3.122,-3.243 -4.686,-7.92 -4.686,-14.022 V 296.57 c 0,-5.97 1.473,-10.548 4.431,-13.743 2.95,-3.17 6.903,-4.78 11.84,-4.78 4.824,0 8.564,1.27 11.212,3.781 2.639,2.519 4.025,6.038 4.146,10.532 l -0.066,0.2 h -3.94 c -0.14,-3.443 -1.14,-6.101 -3.022,-7.979 -1.871,-1.861 -4.655,-2.803 -8.33,-2.803 -3.72,0 -6.668,1.259 -8.823,3.785 -2.15,2.518 -3.224,6.17 -3.224,10.968 v 15.301 q 0.001,7.462 3.476,11.382 c 2.316,2.592 5.438,3.892 9.38,3.892 2.876,0 5.19,-0.51 6.92,-1.554 1.738,-1.028 2.942,-2.285 3.624,-3.775 V 308.45 h -10.618 v -3.704 h 14.873 z m 19.557,3.902 c 2.336,0 4.416,-0.661 6.232,-2.01 1.82,-1.353 3.096,-3.063 3.852,-5.146 v -8.224 h -6.756 q -4.31,0 -6.896,2.442 c -1.726,1.617 -2.581,3.637 -2.581,6.037 0,2.03 0.534,3.696 1.616,4.981 1.08,1.289 2.59,1.92 4.533,1.92 m 10.715,3.068 a 99,99 0 0 1 -0.48,-3.225 22,22 0 0 1 -0.15,-2.562 14.9,14.9 0 0 1 -4.483,4.675 c -1.836,1.236 -3.878,1.848 -6.128,1.848 -3.147,0 -5.567,-0.975 -7.28,-2.927 -1.702,-1.96 -2.563,-4.6 -2.563,-7.936 0,-3.523 1.237,-6.35 3.72,-8.448 2.48,-2.098 5.85,-3.147 10.09,-3.147 h 6.643 v -4.672 c 0,-2.686 -0.686,-4.802 -2.032,-6.331 -1.375,-1.51 -3.264,-2.275 -5.701,-2.275 -2.268,0 -4.139,0.722 -5.608,2.182 -1.463,1.45 -2.19,3.224 -2.19,5.337 l -3.944,-0.035 -0.07,-0.206 c -0.11,-2.866 0.973,-5.4 3.261,-7.646 2.279,-2.24 5.203,-3.352 8.761,-3.352 3.517,0 6.347,1.069 8.509,3.2 q 3.224,3.227 3.226,9.21 v 18.645 c 0,1.358 0.064,2.677 0.183,3.936 a 25,25 0 0 0 0.627,3.729 z m 16.905,-38.108 0.36,5.9 c 1,-2.112 2.339,-3.739 3.998,-4.896 q 2.498,-1.711 5.874,-1.711 c 2.296,0 4.232,0.668 5.794,2.02 1.562,1.347 2.714,3.387 3.446,6.127 0.938,-2.529 2.264,-4.528 3.986,-5.975 1.722,-1.45 3.812,-2.172 6.23,-2.172 3.335,0 5.923,1.35 7.755,4.05 1.841,2.705 2.759,6.856 2.759,12.464 v 22.207 h -4.246 v -22.28 c 0,-4.663 -0.645,-7.946 -1.9,-9.834 -1.261,-1.89 -3.071,-2.842 -5.41,-2.842 -2.462,0 -4.384,1.04 -5.767,3.152 -1.375,2.112 -2.223,4.754 -2.531,7.945 v 23.86 h -4.224 v -22.258 c 0,-4.554 -0.639,-7.812 -1.945,-9.759 -1.299,-1.946 -3.107,-2.912 -5.427,-2.912 -2.218,0 -4.013,0.677 -5.358,2.02 -1.353,1.349 -2.315,3.195 -2.899,5.538 v 27.369 h -4.22 v -38.014 z m 61.457,3.021 q -3.966,0 -6.517,3.613 c -1.705,2.415 -2.585,5.392 -2.656,8.938 h 17.537 v -1.626 c 0,-3.137 -0.736,-5.75 -2.21,-7.822 -1.482,-2.075 -3.53,-3.103 -6.154,-3.103 m 0.598,35.735 c -4.099,0 -7.451,-1.543 -10.055,-4.621 q -3.895,-4.61 -3.896,-11.793 v -6.313 c 0,-4.798 1.303,-8.798 3.912,-11.979 2.616,-3.167 5.758,-4.75 9.441,-4.75 3.983,0 7.068,1.413 9.27,4.246 q 3.313,4.257 3.312,11.434 v 4.171 H 587.39 v 3.162 c 0,3.68 0.882,6.744 2.635,9.19 1.757,2.45 4.144,3.666 7.136,3.666 2.077,0 3.888,-0.367 5.396,-1.089 a 11.1,11.1 0 0 0 3.877,-3.132 l 1.728,2.99 c -1.148,1.456 -2.634,2.633 -4.45,3.505 -1.811,0.868 -4,1.312 -6.551,1.312 m 46.411,-35.734 q -3.976,0 -6.528,3.613 -2.54,3.62 -2.652,8.938 h 17.54 v -1.626 c 0,-3.137 -0.733,-5.75 -2.216,-7.822 -1.475,-2.075 -3.52,-3.103 -6.144,-3.103 m 0.593,35.735 c -4.1,0 -7.446,-1.543 -10.045,-4.621 q -3.91,-4.61 -3.91,-11.793 v -6.313 c 0,-4.798 1.309,-8.798 3.913,-11.979 2.623,-3.167 5.766,-4.75 9.45,-4.75 3.975,0 7.072,1.413 9.27,4.246 2.2,2.837 3.304,6.65 3.304,11.434 v 4.171 h -21.755 v 3.162 q 0,5.52 2.647,9.19 c 1.747,2.45 4.124,3.666 7.125,3.666 2.087,0 3.888,-0.367 5.392,-1.089 a 11.2,11.2 0 0 0 3.894,-3.132 l 1.717,2.99 c -1.15,1.456 -2.633,2.633 -4.451,3.505 -1.81,0.868 -3.997,1.312 -6.55,1.312 m 23.189,-38.755 0.345,6.284 c 1.014,-2.23 2.353,-3.962 4.034,-5.166 1.667,-1.21 3.63,-1.824 5.887,-1.824 3.396,0 5.998,1.256 7.804,3.78 1.826,2.518 2.73,6.434 2.73,11.749 v 23.191 h -4.249 V 306.72 c 0,-4.343 -0.636,-7.377 -1.9,-9.137 -1.258,-1.76 -3.107,-2.636 -5.513,-2.636 -2.158,0 -3.968,0.701 -5.419,2.126 -1.457,1.412 -2.543,3.294 -3.267,5.666 v 27.134 h -4.219 V 291.86 Z m 33.27,22.395 c 0,3.858 0.73,6.926 2.213,9.208 1.465,2.304 3.695,3.443 6.671,3.443 2.04,0 3.757,-0.544 5.167,-1.657 1.405,-1.113 2.514,-2.662 3.336,-4.627 V 301.79 c -0.79,-2.025 -1.874,-3.66 -3.244,-4.92 -1.368,-1.24 -3.102,-1.863 -5.186,-1.863 -2.97,0 -5.216,1.294 -6.708,3.891 -1.502,2.603 -2.25,5.995 -2.25,10.161 z m -4.262,-5.195 c 0,-5.386 1.088,-9.714 3.274,-12.975 2.169,-3.245 5.187,-4.871 9.03,-4.871 2.134,0 4.007,0.52 5.607,1.564 1.603,1.024 2.928,2.523 3.992,4.43 l 0.412,-5.287 h 3.581 v 38.048 c 0,4.871 -1.13,8.646 -3.4,11.317 -2.271,2.66 -5.499,4.009 -9.666,4.009 -1.5,0 -3.11,-0.235 -4.832,-0.691 -1.724,-0.456 -3.252,-1.054 -4.59,-1.805 l 1.168,-3.704 a 14.1,14.1 0 0 0 3.831,1.716 15.2,15.2 0 0 0 4.352,0.616 q 4.536,-10e-4 6.71,-2.905 c 1.452,-1.961 2.18,-4.798 2.18,-8.553 v -4.597 c -1.079,1.71 -2.402,3.024 -3.97,3.93 -1.563,0.912 -3.39,1.368 -5.448,1.368 -3.818,0 -6.814,-1.496 -8.976,-4.486 -2.167,-2.983 -3.255,-6.965 -3.255,-11.93 z m 40.2,20.916 h -4.266 V 291.86 h 4.266 z m 0,-48.968 h -4.266 v -6.005 h 4.266 z m 13.774,10.852 0.346,6.284 c 1.016,-2.23 2.35,-3.962 4.027,-5.166 1.677,-1.21 3.643,-1.824 5.89,-1.824 3.397,0 6.01,1.256 7.82,3.78 1.821,2.518 2.717,6.434 2.717,11.749 v 23.191 h -4.248 V 306.72 c 0,-4.343 -0.635,-7.377 -1.897,-9.137 -1.268,-1.76 -3.103,-2.636 -5.517,-2.636 -2.157,0 -3.962,0.701 -5.412,2.126 -1.455,1.412 -2.545,3.294 -3.266,5.666 v 27.134 h -4.224 V 291.86 Z m 42.074,3.021 q -3.978,0 -6.518,3.613 -2.547,3.62 -2.66,8.938 h 17.54 v -1.626 c 0,-3.137 -0.731,-5.75 -2.21,-7.822 -1.476,-2.075 -3.525,-3.103 -6.152,-3.103 m 0.602,35.735 c -4.11,0 -7.456,-1.543 -10.048,-4.621 q -3.903,-4.61 -3.903,-11.793 v -6.313 c 0,-4.798 1.302,-8.798 3.91,-11.979 q 3.924,-4.75 9.439,-4.75 c 3.978,0 7.077,1.413 9.283,4.246 2.197,2.837 3.3,6.65 3.3,11.434 v 4.171 h -21.76 v 3.162 c 0,3.68 0.887,6.744 2.642,9.19 1.754,2.45 4.133,3.666 7.137,3.666 2.08,0 3.88,-0.367 5.382,-1.089 a 11.16,11.16 0 0 0 3.897,-3.132 l 1.725,2.99 c -1.156,1.456 -2.64,2.633 -4.454,3.505 -1.81,0.868 -3.998,1.312 -6.55,1.312"
     id="path3" /><path
     fill="#6d6e71"
     d="m 487.93,322.997 c -0.94,1.926 -2.664,3.691 -5.188,5.289 -2.52,1.607 -5.722,2.406 -9.611,2.406 -5.132,0 -9.259,-1.617 -12.394,-4.887 -3.122,-3.243 -4.686,-7.92 -4.686,-14.022 V 296.57 c 0,-5.97 1.473,-10.548 4.431,-13.743 2.95,-3.17 6.903,-4.78 11.84,-4.78 4.824,0 8.564,1.27 11.212,3.781 2.639,2.519 4.025,6.038 4.146,10.532 l -0.066,0.2 h -3.94 c -0.14,-3.443 -1.14,-6.101 -3.022,-7.979 -1.871,-1.861 -4.655,-2.803 -8.33,-2.803 -3.72,0 -6.668,1.259 -8.823,3.785 -2.15,2.518 -3.224,6.17 -3.224,10.968 v 15.301 q 0.001,7.462 3.476,11.382 c 2.316,2.592 5.438,3.892 9.38,3.892 2.876,0 5.19,-0.51 6.92,-1.554 1.738,-1.028 2.942,-2.285 3.624,-3.775 V 308.45 h -10.618 v -3.704 h 14.873 z m 19.557,3.902 c 2.336,0 4.416,-0.661 6.232,-2.01 1.82,-1.353 3.096,-3.063 3.852,-5.146 v -8.224 h -6.756 q -4.31,0 -6.896,2.442 c -1.726,1.617 -2.581,3.637 -2.581,6.037 0,2.03 0.534,3.696 1.616,4.981 1.08,1.289 2.59,1.92 4.533,1.92 m 10.715,3.068 a 99,99 0 0 1 -0.48,-3.225 22,22 0 0 1 -0.15,-2.562 14.9,14.9 0 0 1 -4.483,4.675 c -1.836,1.236 -3.878,1.848 -6.128,1.848 -3.147,0 -5.567,-0.975 -7.28,-2.927 -1.702,-1.96 -2.563,-4.6 -2.563,-7.936 0,-3.523 1.237,-6.35 3.72,-8.448 2.48,-2.098 5.85,-3.147 10.09,-3.147 h 6.643 v -4.672 c 0,-2.686 -0.686,-4.802 -2.032,-6.331 -1.375,-1.51 -3.264,-2.275 -5.701,-2.275 -2.268,0 -4.139,0.722 -5.608,2.182 -1.463,1.45 -2.19,3.224 -2.19,5.337 l -3.944,-0.035 -0.07,-0.206 c -0.11,-2.866 0.973,-5.4 3.261,-7.646 2.279,-2.24 5.203,-3.352 8.761,-3.352 3.517,0 6.347,1.069 8.509,3.2 q 3.224,3.227 3.226,9.21 v 18.645 c 0,1.358 0.064,2.677 0.183,3.936 a 25,25 0 0 0 0.627,3.729 z m 16.905,-38.108 0.36,5.9 c 1,-2.112 2.339,-3.739 3.998,-4.896 q 2.498,-1.711 5.874,-1.711 c 2.296,0 4.232,0.668 5.794,2.02 1.562,1.347 2.714,3.387 3.446,6.127 0.938,-2.529 2.264,-4.528 3.986,-5.975 1.722,-1.45 3.812,-2.172 6.23,-2.172 3.335,0 5.923,1.35 7.755,4.05 1.841,2.705 2.759,6.856 2.759,12.464 v 22.207 h -4.246 v -22.28 c 0,-4.663 -0.645,-7.946 -1.9,-9.834 -1.261,-1.89 -3.071,-2.842 -5.41,-2.842 -2.462,0 -4.384,1.04 -5.767,3.152 -1.375,2.112 -2.223,4.754 -2.531,7.945 v 23.86 h -4.224 v -22.258 c 0,-4.554 -0.639,-7.812 -1.945,-9.759 -1.299,-1.946 -3.107,-2.912 -5.427,-2.912 -2.218,0 -4.013,0.677 -5.358,2.02 -1.353,1.349 -2.315,3.195 -2.899,5.538 v 27.369 h -4.22 v -38.014 z m 61.457,3.021 q -3.966,0 -6.517,3.613 c -1.705,2.415 -2.585,5.392 -2.656,8.938 h 17.537 v -1.626 c 0,-3.137 -0.736,-5.75 -2.21,-7.822 -1.482,-2.075 -3.53,-3.103 -6.154,-3.103 m 0.598,35.735 c -4.099,0 -7.451,-1.543 -10.055,-4.621 q -3.895,-4.61 -3.896,-11.793 v -6.313 c 0,-4.798 1.303,-8.798 3.912,-11.979 2.616,-3.167 5.758,-4.75 9.441,-4.75 3.983,0 7.068,1.413 9.27,4.246 q 3.313,4.257 3.312,11.434 v 4.171 H 587.39 v 3.162 c 0,3.68 0.882,6.744 2.635,9.19 1.757,2.45 4.144,3.666 7.136,3.666 2.077,0 3.888,-0.367 5.396,-1.089 a 11.1,11.1 0 0 0 3.877,-3.132 l 1.728,2.99 c -1.148,1.456 -2.634,2.633 -4.45,3.505 -1.811,0.868 -4,1.312 -6.551,1.312 m 46.411,-35.734 q -3.976,0 -6.528,3.613 -2.54,3.62 -2.652,8.938 h 17.54 v -1.626 c 0,-3.137 -0.733,-5.75 -2.216,-7.822 -1.475,-2.075 -3.52,-3.103 -6.144,-3.103 m 0.593,35.735 c -4.1,0 -7.446,-1.543 -10.045,-4.621 q -3.91,-4.61 -3.91,-11.793 v -6.313 c 0,-4.798 1.309,-8.798 3.913,-11.979 2.623,-3.167 5.766,-4.75 9.45,-4.75 3.975,0 7.072,1.413 9.27,4.246 2.2,2.837 3.304,6.65 3.304,11.434 v 4.171 h -21.755 v 3.162 q 0,5.52 2.647,9.19 c 1.747,2.45 4.124,3.666 7.125,3.666 2.087,0 3.888,-0.367 5.392,-1.089 a 11.2,11.2 0 0 0 3.894,-3.132 l 1.717,2.99 c -1.15,1.456 -2.633,2.633 -4.451,3.505 -1.81,0.868 -3.997,1.312 -6.55,1.312 m 23.189,-38.755 0.345,6.284 c 1.014,-2.23 2.353,-3.962 4.034,-5.166 1.667,-1.21 3.63,-1.824 5.887,-1.824 3.396,0 5.998,1.256 7.804,3.78 1.826,2.518 2.73,6.434 2.73,11.749 v 23.191 h -4.249 V 306.72 c 0,-4.343 -0.636,-7.377 -1.9,-9.137 -1.258,-1.76 -3.107,-2.636 -5.513,-2.636 -2.158,0 -3.968,0.701 -5.419,2.126 -1.457,1.412 -2.543,3.294 -3.267,5.666 v 27.134 h -4.219 V 291.86 Z m 33.27,22.395 c 0,3.858 0.73,6.926 2.213,9.208 1.465,2.304 3.695,3.443 6.671,3.443 2.04,0 3.757,-0.544 5.167,-1.657 1.405,-1.113 2.514,-2.662 3.336,-4.627 V 301.79 c -0.79,-2.025 -1.874,-3.66 -3.244,-4.92 -1.368,-1.24 -3.102,-1.863 -5.186,-1.863 -2.97,0 -5.216,1.294 -6.708,3.891 -1.502,2.603 -2.25,5.995 -2.25,10.161 z m -4.262,-5.195 c 0,-5.386 1.088,-9.714 3.274,-12.975 2.169,-3.245 5.187,-4.871 9.03,-4.871 2.134,0 4.007,0.52 5.607,1.564 1.603,1.024 2.928,2.523 3.992,4.43 l 0.412,-5.287 h 3.581 v 38.048 c 0,4.871 -1.13,8.646 -3.4,11.317 -2.271,2.66 -5.499,4.009 -9.666,4.009 -1.5,0 -3.11,-0.235 -4.832,-0.691 -1.724,-0.456 -3.252,-1.054 -4.59,-1.805 l 1.168,-3.704 a 14.1,14.1 0 0 0 3.831,1.716 15.2,15.2 0 0 0 4.352,0.616 q 4.536,-10e-4 6.71,-2.905 c 1.452,-1.961 2.18,-4.798 2.18,-8.553 v -4.597 c -1.079,1.71 -2.402,3.024 -3.97,3.93 -1.563,0.912 -3.39,1.368 -5.448,1.368 -3.818,0 -6.814,-1.496 -8.976,-4.486 -2.167,-2.983 -3.255,-6.965 -3.255,-11.93 z m 40.2,20.916 h -4.266 V 291.86 h 4.266 z m 0,-48.968 h -4.266 v -6.005 h 4.266 z m 13.774,10.852 0.346,6.284 c 1.016,-2.23 2.35,-3.962 4.027,-5.166 1.677,-1.21 3.643,-1.824 5.89,-1.824 3.397,0 6.01,1.256 7.82,3.78 1.821,2.518 2.717,6.434 2.717,11.749 v 23.191 h -4.248 V 306.72 c 0,-4.343 -0.635,-7.377 -1.897,-9.137 -1.268,-1.76 -3.103,-2.636 -5.517,-2.636 -2.157,0 -3.962,0.701 -5.412,2.126 -1.455,1.412 -2.545,3.294 -3.266,5.666 v 27.134 h -4.224 V 291.86 Z m 42.074,3.021 q -3.978,0 -6.518,3.613 -2.547,3.62 -2.66,8.938 h 17.54 v -1.626 c 0,-3.137 -0.731,-5.75 -2.21,-7.822 -1.476,-2.075 -3.525,-3.103 -6.152,-3.103 m 0.602,35.735 c -4.11,0 -7.456,-1.543 -10.048,-4.621 q -3.903,-4.61 -3.903,-11.793 v -6.313 c 0,-4.798 1.302,-8.798 3.91,-11.979 q 3.924,-4.75 9.439,-4.75 c 3.978,0 7.077,1.413 9.283,4.246 2.197,2.837 3.3,6.65 3.3,11.434 v 4.171 h -21.76 v 3.162 c 0,3.68 0.887,6.744 2.642,9.19 1.754,2.45 4.133,3.666 7.137,3.666 2.08,0 3.88,-0.367 5.382,-1.089 a 11.16,11.16 0 0 0 3.897,-3.132 l 1.725,2.99 c -1.156,1.456 -2.64,2.633 -4.454,3.505 -1.81,0.868 -3.998,1.312 -6.55,1.312"
     id="path4" /><g
     id="use12"
     transform="matrix(-0.34261785,-0.41346327,0.39589572,-0.33368774,89.336525,259.97272)"><g
       fill="#ffffff"
       transform="matrix(0.363,0,0,0.363,30.492,21.054)"
       id="g18"><path
         d="m 105,673 v 33 q 407,354 814,0 v -33 z"
         id="path14" /><path
         fill="none"
         stroke="#ffffff"
         stroke-linejoin="round"
         stroke-width="64"
         d="m 105,745 c 0,276 813,276 814,0 V 427 q 30,-39 56,-81 -35,-59 -83,-108 -43,20 -82,47 -40,-37 -88,-64 7,-51 8,-102 -59,-28 -123,-42 -26,43 -46,89 -49,-7 -98,0 -20,-46 -46,-89 -64,14 -123,42 1,51 8,102 -48,27 -88,64 -39,-27 -82,-47 -48,49 -83,108 26,42 56,81 z"
         id="path15" /><path
         fill="#478cbf"
         d="m 105,673 152,14 q 12,1 15,14 l 4,67 132,10 8,-61 q 2,-11 15,-15 h 162 q 13,4 15,15 l 8,61 132,-10 4,-67 q 3,-13 15,-14 L 919,673 V 427 q 30,-39 56,-81 -35,-59 -83,-108 -43,20 -82,47 -40,-37 -88,-64 7,-51 8,-102 -59,-28 -123,-42 -26,43 -46,89 -49,-7 -98,0 -20,-46 -46,-89 -64,14 -123,42 1,51 8,102 -48,27 -88,64 -39,-27 -82,-47 -48,49 -83,108 26,42 56,81 z m 0,33 v 39 c 0,276 813,276 814,0 v -39 l -134,12 -5,69 q -2,10 -14,13 l -162,11 q -12,0 -16,-11 L 578,735 H 446 l -10,65 q -4,11 -16,11 L 258,800 q -12,-3 -14,-13 l -5,-69 z"
         id="path16" /><path
         d="m 483,600 c 0,34 58,34 58,0 v -86 c 0,-34 -58,-34 -58,0 z"
         id="path17" /><circle
         cx="725"
         cy="526"
         r="90"
         id="circle17" /><circle
         cx="299"
         cy="526"
         r="90"
         id="circle18" /></g><g
       fill="#414042"
       transform="matrix(0.363,0,0,0.363,30.492,21.054)"
       id="g20"><circle
         cx="717"
         cy="532"
         r="60"
         id="circle19" /><circle
         cx="307"
         cy="532"
         r="60"
         id="circle20" /></g></g><g
     id="g42"
     transform="matrix(0.34381223,-0.41245358,-0.39492894,-0.33485098,250.63941,260.00465)"><g
       fill="#ffffff"
       transform="matrix(0.363,0,0,0.363,30.492,21.054)"
       id="g39"><path
         d="m 105,673 v 33 q 407,354 814,0 v -33 z"
         id="path35" /><path
         fill="none"
         stroke="#ffffff"
         stroke-linejoin="round"
         stroke-width="64"
         d="m 105,745 c 0,276 813,276 814,0 V 427 q 30,-39 56,-81 -35,-59 -83,-108 -43,20 -82,47 -40,-37 -88,-64 7,-51 8,-102 -59,-28 -123,-42 -26,43 -46,89 -49,-7 -98,0 -20,-46 -46,-89 -64,14 -123,42 1,51 8,102 -48,27 -88,64 -39,-27 -82,-47 -48,49 -83,108 26,42 56,81 z"
         id="path36" /><path
         fill="#478cbf"
         d="m 105,673 152,14 q 12,1 15,14 l 4,67 132,10 8,-61 q 2,-11 15,-15 h 162 q 13,4 15,15 l 8,61 132,-10 4,-67 q 3,-13 15,-14 L 919,673 V 427 q 30,-39 56,-81 -35,-59 -83,-108 -43,20 -82,47 -40,-37 -88,-64 7,-51 8,-102 -59,-28 -123,-42 -26,43 -46,89 -49,-7 -98,0 -20,-46 -46,-89 -64,14 -123,42 1,51 8,102 -48,27 -88,64 -39,-27 -82,-47 -48,49 -83,108 26,42 56,81 z m 0,33 v 39 c 0,276 813,276 814,0 v -39 l -134,12 -5,69 q -2,10 -14,13 l -162,11 q -12,0 -16,-11 L 578,735 H 446 l -10,65 q -4,11 -16,11 L 258,800 q -12,-3 -14,-13 l -5,-69 z"
         id="path37" /><path
         d="m 483,600 c 0,34 58,34 58,0 v -86 c 0,-34 -58,-34 -58,0 z"
         id="path38" /><circle
         cx="725"
         cy="526"
         r="90"
         id="circle38" /><circle
         cx="299"
         cy="526"
         r="90"
         id="circle39" /></g><g
       fill="#414042"
       transform="matrix(0.363,0,0,0.363,30.492,21.054)"
       id="g41"><circle
         cx="717"
         cy="532"
         r="60"
         id="circle40" /><circle
         cx="307"
         cy="532"
         r="60"
         id="circle41" /></g></g><text
     xml:space="preserve"
     style="font-style:normal;font-variant:normal;font-weight:bold;font-stretch:normal;font-size:12px;font-family:'Droid Sans';-inkscape-font-specification:'Droid Sans, Bold';font-variant-ligatures:normal;font-variant-caps:normal;font-variant-numeric:normal;font-variant-east-asian:normal;writing-mode:lr-tb;direction:ltr;white-space:pre;inline-size:62.0004;display:inline;opacity:1;mix-blend-mode:hard-light;fill:#414042;fill-opacity:1;stroke:#ffffff;stroke-width:1.59311;stroke-linecap:round;stroke-linejoin:bevel;stroke-miterlimit:7.3;stroke-dasharray:none;paint-order:stroke fill markers"
     x="396.03571"
     y="125.64988"
     id="text44"
     transform="matrix(10.273239,0,0,13.611802,-3616.8478,-1469.4239)"
     inkscape:highlight-color="#d6d6d6"><tspan
       x="396.03571"
       y="125.64988"
       id="tspan1">GODONG</tspan></text></svg>
